<?xml version="1.0" standalone="no"?><!DOCTYPE svg PUBLIC "-//W3C//DTD SVG 1.1//EN" "http://www.w3.org/Graphics/SVG/1.1/DTD/svg11.dtd"><svg t="1611218990263" class="icon" viewBox="0 0 1024 1024" version="1.1" xmlns="http://www.w3.org/2000/svg" p-id="1162" width="44" height="44" xmlns:xlink="http://www.w3.org/1999/xlink"><defs><style type="text/css"></style></defs><path d="M892.7 649.8h-0.3c-4.1 0-414.6 4.3-492 5.2-11.8 0.1-29.1-3.1-42.8-32.6-9.6-20.7-11.8-42.8-11.9-44 0-0.6-0.1-1.1-0.2-1.7-0.2-1.8-25.1-181.8-40.3-314.1-5.3-45.7-24.3-81-56.6-105-42.1-31.2-95.8-33.5-125.5-31.8-6.1 0.3-12.6 0.6-18.4 2.8-4.4 1.7-8.5 4.5-11.7 8-5.4 5.8-8.5 13.6-8.5 21.6 0 10 4.9 19.7 13 25.6 7 5.1 15.9 6.8 24.4 6.1 18.6-1.6 60.2-2.3 89 19.1 17.7 13.2 27.8 33.1 31 60.9 14.8 128.6 38.6 301.8 40.4 314.7 0.6 6.3 3.8 34.1 16.7 62.7 20.7 46.1 56.5 71.4 100.9 71.4h1.3c77.4-0.8 487.8-5.1 491.9-5.2 17.6-0.2 31.7-14.6 31.6-32.2-0.3-17.4-14.5-31.5-32-31.5z" p-id="1163"></path><path d="M918.4 199c-24.5-28.3-57.9-29.3-65.8-29.1H360.3c-17.6 0-31.9 14.3-31.9 31.9s14.3 31.9 31.9 31.9h492.8c1 0 0.8 0.1 1.4 0 1.9 0.1 10.4 0.8 15.9 7.5 8.6 10.5 10 33.6 3.9 63.5-5.4 26.4-9.8 48.6-13.8 68.2-11.3 56.7-17.6 87.9-23.4 99.7-5.7 11.4-16.7 21.2-32.9 29-25.7 12.5-62.4 19.2-109.1 20.1-191.2 3.4-301 0-302 0-17.6-0.6-32.3 13.3-32.9 30.9s13.3 32.3 30.9 32.9c0.7 0 50.2 1.5 140.2 1.5 45.2 0 100.5-0.4 165-1.5 56-1 101.8-9.9 135.9-26.5 29.1-14.1 50-33.7 62.1-58 9.6-19.4 15.3-47.5 28.9-115.6 3.9-19.5 8.3-41.7 13.7-67.9 10.6-52.2 4.4-92-18.5-118.5z" p-id="1164"></path><path d="M360.498448 817.312127a55 55 0 1 0 107.055856-25.279313 55 55 0 1 0-107.055856 25.279313Z" p-id="1165"></path><path d="M740.706352 816.479994a55 55 0 1 0 107.055856-25.279313 55 55 0 1 0-107.055856 25.279313Z" p-id="1166"></path></svg>